<?xml version="1.0" encoding="UTF-8"?>
<svg width="11px" height="8px" viewBox="0 0 11 8" version="1.1" xmlns="http://www.w3.org/2000/svg" xmlns:xlink="http://www.w3.org/1999/xlink">
    <!-- Generator: Sketch 60.1 (88133) - https://sketch.com -->
    <title>ic_train</title>
    <desc>Created with Sketch.</desc>
    <g id="Symbols" stroke="none" stroke-width="1" fill="none" fill-rule="evenodd">
        <g id="list_flight_ind_detail" transform="translate(-465.000000, -62.000000)">
            <g id="Group-18">
                <g id="2">
                    <g id="ic_train" transform="translate(462.000000, 58.000000)">
                        <rect id="Rectangle" x="0" y="0" width="16" height="16"></rect>
                        <g id="Group-2" transform="translate(8.500000, 8.000000) scale(-1, 1) translate(-8.500000, -8.000000) translate(3.000000, 4.000000)" fill="#C6CBDA" fill-rule="nonzero">
                            <path d="M0.423321759,7.91666667 C0.189527607,7.91666667 0,7.73944605 0,7.52083333 C0,7.30222062 0.189527607,7.125 0.423321759,7.125 L9.73640046,7.125 C9.97019461,7.125 10.1597222,7.30222062 10.1597222,7.52083333 C10.1597222,7.73944605 9.97019461,7.91666667 9.73640046,7.91666667 L0.423321759,7.91666667 Z" id="Path"></path>
                            <path d="M10.7800878,0 L10.7800878,5.9375 L2.62233536,5.9375 C0.688173164,5.9375 -0.392479882,4.91531446 0.140179951,3.40808604 L0.256645987,3.166 L3.01064309,3.16666667 C3.63970787,3.16666667 4.15951663,2.78088089 4.22602862,2.28494161 L4.23321759,2.17708333 C4.23321759,1.62843949 3.68607947,1.1875 3.01064309,1.1875 L3.01064309,1.1875 L1.81564599,1.187 L2.00899064,1.0335629 C2.46858731,0.684013071 2.95247512,0.422010461 3.4374749,0.235108474 C3.78237517,0.102195951 4.05670946,0.0321743706 4.22585539,0.00550862343 L4.29623303,0 L10.7800878,0 Z M8.69484999,1.1875 L6.3664926,1.1875 C5.82914073,1.1875 5.39178241,1.63036633 5.39178241,2.17708333 C5.39178241,2.72572717 5.82799395,3.16666667 6.3664926,3.16666667 L6.3664926,3.16666667 L8.69484999,3.16666667 C9.23220187,3.16666667 9.66956019,2.72380034 9.66956019,2.17708333 C9.66956019,1.62843949 9.23334864,1.1875 8.69484999,1.1875 L8.69484999,1.1875 Z" id="Combined-Shape"></path>
                        </g>
                    </g>
                </g>
            </g>
        </g>
    </g>
</svg>